<svg xmlns="http://www.w3.org/2000/svg" viewBox="0 0 400 300" width="406" height="306" class="illustration styles_illustrationTablet__1DWOa"><g id="_492_convention_outline" data-name="#492_convention_outline"><path d="M150.43,175.54a1,1,0,0,1-1-1V146.32a1,1,0,0,1,.3-.71l10.19-10a1,1,0,1,1,1.4,1.43l-9.89,9.69v27.8A1,1,0,0,1,150.43,175.54Z" fill="#093f68"></path><rect x="155.53" y="131.27" width="12.79" height="7.28" rx="3.42" transform="translate(-48.61 144.75) rotate(-42.48)" fill="#ffbc0e"></rect><path d="M159.88,141.5h-.2a4.36,4.36,0,0,1-3.06-1.43l-.3-.32a4.43,4.43,0,0,1,.28-6.25l4.38-4a4.43,4.43,0,0,1,6.25.28l.29.32a4.42,4.42,0,0,1-.27,6.25h0l-4.38,4A4.39,4.39,0,0,1,159.88,141.5ZM164,130.32a2.43,2.43,0,0,0-1.64.64L158,135a2.37,2.37,0,0,0-.78,1.68,2.4,2.4,0,0,0,.63,1.75l.29.32a2.43,2.43,0,0,0,3.42.15l4.39-4a2.34,2.34,0,0,0,.78-1.68,2.39,2.39,0,0,0-.63-1.74l-.29-.32a2.37,2.37,0,0,0-1.68-.78Zm2.6,5.27h0Z" fill="#093f68"></path><path d="M249.11,175.54a1,1,0,0,1-1-1V158.42l-9.89-9.7a1,1,0,0,1,0-1.41,1,1,0,0,1,1.42,0l10.19,10a1,1,0,0,1,.3.71v16.54A1,1,0,0,1,249.11,175.54Z" fill="#093f68"></path><rect x="234.41" y="147.39" width="12.79" height="7.28" rx="3.42" transform="translate(316.42 425.03) rotate(-137.52)" fill="#f56132"></rect><path d="M242.85,157.62a4.43,4.43,0,0,1-3-1.16l-4.38-4h0a4.43,4.43,0,0,1-.28-6.25l.3-.32a4.36,4.36,0,0,1,3.06-1.43,4.41,4.41,0,0,1,3.19,1.16l4.38,4a4.42,4.42,0,0,1,.27,6.25l-.29.32a4.38,4.38,0,0,1-3.07,1.43Zm-6-6.65,4.38,4a2.4,2.4,0,0,0,1.75.63,2.37,2.37,0,0,0,1.68-.78l.29-.32a2.39,2.39,0,0,0,.63-1.74,2.34,2.34,0,0,0-.78-1.68l-4.39-4a2.38,2.38,0,0,0-1.74-.63,2.44,2.44,0,0,0-1.68.78l-.29.32a2.43,2.43,0,0,0,.15,3.43Z" fill="#093f68"></path><path d="M231.09,188.3V158a18.19,18.19,0,0,0-18.19-18.19H184.21A18.19,18.19,0,0,0,166,158V188.3Z" fill="#a83461"></path><path d="M231.09,189.3H166a1,1,0,0,1-1-1V158a19.21,19.21,0,0,1,19.19-19.19H212.9A19.21,19.21,0,0,1,232.09,158V188.3A1,1,0,0,1,231.09,189.3Zm-64.07-2h63.07V158a17.21,17.21,0,0,0-17.19-17.19H184.21A17.21,17.21,0,0,0,167,158Z" fill="#093f68"></path><polygon points="210.41 139.79 198.77 183.88 186.87 139.79 210.41 139.79" fill="#fff"></polygon><path d="M198.77,184.88a1,1,0,0,1-1-.74l-11.9-44.09a1,1,0,0,1,.17-.87,1,1,0,0,1,.8-.39h23.54a1,1,0,0,1,.8.39,1,1,0,0,1,.17.87l-11.65,44.09a1,1,0,0,1-1,.74Zm-10.6-44.09L198.76,180l10.36-39.22Z" fill="#093f68"></path><path d="M194.67,136.33h9.1a0,0,0,0,1,0,0v5.24a3.87,3.87,0,0,1-3.87,3.87h-1.37a3.87,3.87,0,0,1-3.87-3.87v-5.24a0,0,0,0,1,0,0Z" fill="#ffc9b0"></path><path d="M199.91,146.44h-1.38a4.87,4.87,0,0,1-4.86-4.87v-5.24a1,1,0,0,1,1-1h9.1a1,1,0,0,1,1,1v5.24A4.87,4.87,0,0,1,199.91,146.44Zm-4.24-9.11v4.24a2.87,2.87,0,0,0,2.86,2.87h1.38a2.87,2.87,0,0,0,2.86-2.87v-4.24Z" fill="#093f68"></path><path d="M167.79,111.07c-4.23-1.6-4-4.83-4.61-9A107.07,107.07,0,0,1,162,89.7c-.16-4.71,0-9.56,1.8-13.93,2.3-5.62,6.84-9.26,12.91-8.76-.18-8.29,4.79-13.39,13.61-13.86,14.11-.75,22.23,11.73,30.13,10.61s10-4.64,10-4.64a14.48,14.48,0,0,1-1.69,16s6.22-1.82,7,6.46-4.2,30.28-4.2,30.28l-5.64-1c-2.37-.42-5.33.16-7.72.24l-17.65.55C191.7,111.92,177.39,114.71,167.79,111.07Z" fill="#725858"></path><path d="M180.51,113.92A37.78,37.78,0,0,1,167.43,112h0c-4.18-1.59-4.59-4.74-5-8.07-.07-.55-.14-1.11-.23-1.69A107.56,107.56,0,0,1,161,89.74c-.15-4.45,0-9.64,1.87-14.35,2.44-6,7.16-9.42,12.78-9.42h.07c.25-8.21,5.62-13.34,14.54-13.82,8.18-.43,14.49,3.45,19.57,6.56,3.93,2.42,7.33,4.51,10.48,4.06,7.23-1,9.27-4.14,9.29-4.17a1.07,1.07,0,0,1,.87-.48,1,1,0,0,1,.85.5A15.71,15.71,0,0,1,230.81,74a5.91,5.91,0,0,1,2.8,1c1.79,1.22,2.84,3.42,3.13,6.53.76,8.34-4,29.68-4.22,30.59a1,1,0,0,1-1.15.76l-5.64-1a20.48,20.48,0,0,0-5,.07c-.89.09-1.72.16-2.53.19l-17.64.55c-2.2.07-4.78.3-7.51.54C189.16,113.53,184.8,113.92,180.51,113.92Zm-12.37-3.78c7,2.63,16.82,1.76,24.74,1,2.76-.25,5.37-.48,7.62-.55l17.65-.55c.74,0,1.55-.1,2.41-.18a21.67,21.67,0,0,1,5.51,0h0l4.7.82c.92-4.26,4.62-22,4-29-.23-2.48-1-4.18-2.25-5.05a4.51,4.51,0,0,0-3.45-.54,1,1,0,0,1-1.11-.42,1,1,0,0,1,.05-1.17,13.41,13.41,0,0,0,2.19-13.56c-1.4,1.25-4.27,3.08-9.58,3.83-3.86.56-7.55-1.7-11.81-4.32-5.09-3.13-10.87-6.68-18.41-6.27-8.21.44-12.83,5.12-12.66,12.84a1,1,0,0,1-.31.75,1,1,0,0,1-.77.27c-5.28-.44-9.61,2.53-11.9,8.14-1.79,4.36-1.87,9.28-1.73,13.52a103.09,103.09,0,0,0,1.16,12.27c.09.6.16,1.18.23,1.74.42,3.3.68,5.3,3.74,6.46Z" fill="#093f68"></path><ellipse cx="173.2" cy="112.68" rx="8.85" ry="7.62" fill="#ffc9b0"></ellipse><path d="M173.2,121.31c-5.43,0-9.85-3.87-9.85-8.63s4.42-8.62,9.85-8.62,9.84,3.87,9.84,8.62S178.63,121.31,173.2,121.31Zm0-15.25c-4.33,0-7.85,3-7.85,6.62s3.52,6.63,7.85,6.63,7.84-3,7.84-6.63S177.53,106.06,173.2,106.06Z" fill="#093f68"></path><ellipse cx="224.77" cy="112.68" rx="8.85" ry="7.62" fill="#ffc9b0"></ellipse><path d="M224.77,121.31c-5.43,0-9.85-3.87-9.85-8.63s4.42-8.62,9.85-8.62,9.84,3.87,9.84,8.62S230.2,121.31,224.77,121.31Zm0-15.25c-4.33,0-7.85,3-7.85,6.62s3.52,6.63,7.85,6.63,7.84-3,7.84-6.63S229.09,106.06,224.77,106.06Z" fill="#093f68"></path><path d="M199.22,137.53h0a26.68,26.68,0,0,1-26.68-26.68V91.48C174.1,94,179.28,93,186.87,80c28.42,14.4,39,6.15,39,6.15v24.7A26.69,26.69,0,0,1,199.22,137.53Z" fill="#ffc9b0"></path><path d="M199.22,138.53a27.71,27.71,0,0,1-27.68-27.68V91.48a1,1,0,0,1,.73-1,1,1,0,0,1,1.13.44,1.23,1.23,0,0,0,1.2.64c1,0,4.88-.91,11.4-12.1a1,1,0,0,1,1.32-.39c14.33,7.26,23.92,8.55,29.43,8.37,5.92-.2,8.51-2.11,8.54-2.13a1,1,0,0,1,1.05-.1,1,1,0,0,1,.56.9v24.7A27.71,27.71,0,0,1,199.22,138.53ZM173.54,93.46v17.39a25.71,25.71,0,0,0,25.68,25.68h0a25.71,25.71,0,0,0,25.68-25.68v-23c-3.94,1.78-15.32,4.58-37.65-6.53-4.72,7.91-9.19,12.26-12.63,12.29A3.24,3.24,0,0,1,173.54,93.46Z" fill="#093f68"></path><circle cx="187.71" cy="106.97" r="2.47" fill="#093f68"></circle><circle cx="210.72" cy="106.97" r="2.47" fill="#093f68"></circle><path d="M199.15,118.18a16.09,16.09,0,0,1-2.45-.2,1,1,0,0,1-.81-1.16,1,1,0,0,1,1.16-.81,12.07,12.07,0,0,0,3.4.07,17.89,17.89,0,0,0-2.06-5.54,1,1,0,0,1,1.77-.93c.88,1.69,2.85,5.8,2.1,7.47a1.57,1.57,0,0,1-1,.88A8.34,8.34,0,0,1,199.15,118.18Z" fill="#093f68"></path><rect x="195.39" y="146.32" width="6.75" height="5.31" rx="1.96" fill="#f56132"></rect><path d="M200.18,152.63h-2.83a3,3,0,0,1-3-3v-1.39a3,3,0,0,1,3-3h2.83a3,3,0,0,1,3,3v1.39A3,3,0,0,1,200.18,152.63Zm-2.83-5.31a1,1,0,0,0-1,1v1.39a1,1,0,0,0,1,1h2.83a1,1,0,0,0,1-1v-1.39a1,1,0,0,0-1-1Z" fill="#093f68"></path><polygon points="202.69 169.02 198.77 183.88 194.41 167.76 196.83 151.63 200.69 151.63 202.69 169.02" fill="#f56132"></polygon><path d="M198.77,184.88a1,1,0,0,1-1-.74L193.45,168a1,1,0,0,1,0-.41l2.41-16.13a1,1,0,0,1,1-.85h3.86a1,1,0,0,1,1,.89l2,17.38a1.14,1.14,0,0,1,0,.37l-3.93,14.87a1,1,0,0,1-1,.74Zm-3.33-17.18L198.76,180l2.92-11.07-1.88-16.31h-2.11Z" fill="#093f68"></path><path d="M180.85,189.3a1,1,0,0,1-1-1V155.44a1,1,0,0,1,2,0V188.3A1,1,0,0,1,180.85,189.3Z" fill="#093f68"></path><path d="M216.26,189.3a1,1,0,0,1-1-1V155.44a1,1,0,0,1,2,0V188.3A1,1,0,0,1,216.26,189.3Z" fill="#093f68"></path><path d="M192.3,101.27H179.44a2,2,0,0,1,0-4H192.3a2,2,0,0,1,0,4Z" fill="#093f68"></path><path d="M219,101.27H206.13a2,2,0,0,1,0-4H219a2,2,0,0,1,0,4Z" fill="#093f68"></path><path d="M204.55,122.12H194.42s-1.08,7.69,5.35,7.69C202.69,129.81,204.55,126.65,204.55,122.12Z" fill="#fff"></path><path d="M199.77,130.81a5.91,5.91,0,0,1-4.69-1.94c-2.23-2.56-1.68-6.71-1.66-6.89a1,1,0,0,1,1-.86h10.13a1,1,0,0,1,1,1C205.55,127.32,203.22,130.81,199.77,130.81Zm-4.42-7.69a6.85,6.85,0,0,0,1.24,4.44,4,4,0,0,0,3.18,1.25c2.06,0,3.51-2.25,3.74-5.69Z" fill="#093f68"></path><rect x="139.26" y="173.43" width="121.47" height="10.45" rx="4.18" fill="#725858"></rect><path d="M256.56,184.88H143.44a5.19,5.19,0,0,1-5.18-5.17V177.6a5.19,5.19,0,0,1,5.18-5.17H256.56a5.19,5.19,0,0,1,5.18,5.17v2.11A5.19,5.19,0,0,1,256.56,184.88ZM143.44,174.43a3.18,3.18,0,0,0-3.18,3.17v2.11a3.18,3.18,0,0,0,3.18,3.17H256.56a3.18,3.18,0,0,0,3.18-3.17V177.6a3.18,3.18,0,0,0-3.18-3.17Z" fill="#093f68"></path><polygon points="152.17 234.88 247.83 234.88 254.05 183.88 145.95 183.88 152.17 234.88" fill="#725858"></polygon><path d="M247.83,235.88H152.17a1,1,0,0,1-1-.88L145,184a1,1,0,0,1,.24-.78,1,1,0,0,1,.75-.34h108.1a1,1,0,0,1,.75.34,1,1,0,0,1,.24.78l-6.21,51A1,1,0,0,1,247.83,235.88Zm-94.78-2H247l6-49H147.08Z" fill="#093f68"></path></g></svg>